<?xml version="1.0" encoding="UTF-8" standalone="no"?>
<!DOCTYPE svg PUBLIC "-//W3C//DTD SVG 1.1//EN" "http://www.w3.org/Graphics/SVG/1.1/DTD/svg11.dtd">
<!-- Created with Vectornator (http://vectornator.io/) -->
<svg height="100%" stroke-miterlimit="10" style="fill-rule:nonzero;clip-rule:evenodd;stroke-linecap:round;stroke-linejoin:round;" version="1.1" viewBox="0 0 774 672" width="100%" xml:space="preserve" xmlns="http://www.w3.org/2000/svg" xmlns:vectornator="http://vectornator.io" xmlns:xlink="http://www.w3.org/1999/xlink">
<defs/>
<g id="Layer-2" vectornator:layerName="Layer 2">
<path d="M193.318 92.3729C163.1 92.3729 138.603 116.869 138.603 147.087L138.603 533.764C138.603 563.61 162.798 587.804 192.643 587.804L577.911 587.804C609.129 587.804 634.437 562.497 634.437 531.278L634.437 288.006C634.437 261.916 613.287 240.765 587.197 240.765L587.197 240.765L574.761 240.765C536.331 240.765 476.314 240.765 476.314 240.765L587.197 92.3729L193.318 92.3729Z" fill="#cc9aff" fill-rule="nonzero" opacity="1" stroke="#a718da" stroke-linecap="butt" stroke-linejoin="round" stroke-width="20" vectornator:layerName="OUTLINE"/>
<path d="M205.625 106.008C177.636 106.053 154.97 128.755 154.97 156.743L154.97 523.83C154.97 550.819 176.847 572.699 203.835 572.702L569.773 572.749C595.358 572.752 616.092 551.997 616.063 526.413L615.802 291.965C615.779 271.937 599.537 255.713 579.509 255.713L453.298 255.713C451.209 255.713 450.003 253.344 451.231 251.655L557.557 105.451L205.625 106.008Z" fill="#cc9aff" fill-rule="nonzero" opacity="1" stroke="#a718da" stroke-linecap="butt" stroke-linejoin="round" stroke-width="20" vectornator:layerName="OUTLINE 1"/>
</g>
<g id="RBapp" vectornator:layerName="RBapp" visibility="hidden">
<g opacity="1" vectornator:layerName="1">
<path d="M281.461 466.634C257.26 466.634 237.641 485.169 237.641 508.033C237.641 530.897 257.26 549.432 281.461 549.432C305.661 549.432 325.28 530.897 325.28 508.033C325.28 485.169 305.661 466.634 281.461 466.634ZM456.738 466.634C432.537 466.634 412.918 485.169 412.918 508.033C412.918 530.897 432.537 549.432 456.738 549.432C480.938 549.432 500.557 530.897 500.557 508.033C500.557 485.169 480.938 466.634 456.738 466.634Z" fill="none" opacity="1" stroke="#a718da" stroke-linecap="butt" stroke-linejoin="round" stroke-width="31" vectornator:layerName="path"/>
<path d="M500.557 499.754L535.612 499.754L535.612 400.396L481.049 316.787C474.669 307 463.381 301.039 451.216 301.039L237.641 301.039C218.273 301.039 202.586 315.859 202.586 334.158L202.586 499.754L237.641 499.754M307.752 301.039L307.752 400.396M412.918 301.039L412.918 400.396M526.849 400.396L202.586 400.396M325.28 499.754L430.446 499.754" fill="none" opacity="1" stroke="#a718da" stroke-linecap="butt" stroke-linejoin="round" stroke-width="31" vectornator:layerName="path"/>
</g>
</g>
<g id="MERCHCLICK" vectornator:layerName="MERCHCLICK" visibility="hidden">
<path d="M351.627 233.781C357.894 231.469 364.675 230.533 371.563 231.094L422.914 235.198L434.7 270.386L429.494 273.254L400.567 289.188L418.094 321.007L488.204 448.281L343.572 527.952L273.462 400.678L255.935 368.859L227.008 384.794L221.802 387.662L198.373 358.887L222.346 313.29C225.562 307.185 229.967 301.938 235.271 297.876C256.095 306.83 284.458 311.674 310.724 297.205C336.989 282.737 348.052 256.175 351.627 233.781M327.953 204.767L319.059 209.667C319.059 209.667 322.123 249.453 293.196 265.387C264.27 281.321 232.279 257.47 232.279 257.47L223.384 262.369C210.281 269.587 199.579 280.584 192.419 294.212L157.328 360.967L215.609 432.546L244.536 416.612L332.173 575.705L534.658 464.166L447.021 305.073L475.947 289.139L446.592 201.625L371.416 195.611C356.071 194.38 341.057 197.549 327.953 204.767L327.953 204.767Z" fill="#a718da" fill-rule="nonzero" opacity="1" stroke="none" vectornator:layerName="path"/>
</g>
<g id="Layer-1" vectornator:layerName="Layer 1">
<g opacity="1" vectornator:layerName="1">
<path d="M490.677 381.442L456.115 327.234C448.118 254.148 386.224 197.274 311.001 197.274C230.338 197.274 164.938 262.674 164.938 343.338C164.938 434.7 219.712 424.202 219.712 512.041L219.712 562.432L384.033 562.432L384.033 507.659L420.549 507.659C440.724 507.659 457.065 491.318 457.065 471.143L457.065 416.753L483.1 405.78C492.613 401.781 496.246 390.151 490.677 381.442ZM442.878 383.103L420.549 392.524L420.549 471.143L347.517 471.143L347.517 525.917L256.228 525.917L256.228 512.041C256.228 457.139 237.659 430.336 222.743 408.81C210.382 390.954 201.454 378.064 201.454 343.338C201.454 282.94 250.604 233.79 311.001 233.79C366.944 233.79 413.739 275.674 419.837 331.233L420.768 339.686L425.351 346.861L447.278 381.259L442.878 383.103Z" fill="#a718da" fill-rule="nonzero" opacity="1" stroke="none" vectornator:layerName="path"/>
<path d="M322.011 270.306L299.974 270.306C297.6 270.306 295.628 272.132 295.427 274.487L294.022 291.522C286.737 293.913 280.164 297.693 274.577 302.695L259.167 295.429C258.528 295.137 257.871 294.991 257.214 294.991C255.625 294.991 254.091 295.812 253.252 297.273L242.242 316.371C241.055 318.434 241.64 321.045 243.593 322.396L257.433 331.999C256.666 335.669 256.228 339.449 256.228 343.338C256.228 347.226 256.666 351.006 257.433 354.676L243.593 364.279C241.64 365.63 241.055 368.26 242.242 370.304L253.252 389.384C254.091 390.845 255.625 391.666 257.214 391.666C257.871 391.666 258.528 391.52 259.149 391.228L274.559 383.961C280.127 388.964 286.718 392.743 294.003 395.135L295.427 412.17C295.628 414.543 297.618 416.369 299.992 416.369L322.029 416.369C324.403 416.369 326.375 414.543 326.575 412.188L327.999 395.153C335.284 392.762 341.857 388.982 347.444 383.98L362.854 391.246C363.475 391.538 364.15 391.684 364.789 391.684C366.378 391.684 367.911 390.863 368.751 389.402L379.761 370.323C380.947 368.26 380.363 365.649 378.41 364.298L364.57 354.694C365.337 351.006 365.775 347.226 365.775 343.338C365.775 339.449 365.337 335.669 364.57 331.999L378.41 322.396C380.363 321.045 380.947 318.415 379.761 316.371L368.751 297.291C367.911 295.83 366.378 295.009 364.789 295.009C364.132 295.009 363.475 295.155 362.854 295.447L347.444 302.714C341.839 297.693 335.266 293.913 327.981 291.522L326.557 274.487C326.375 272.132 324.384 270.306 322.011 270.306L322.011 270.306ZM311.001 370.724C295.884 370.724 283.615 358.455 283.615 343.338C283.615 328.22 295.884 315.951 311.001 315.951C326.119 315.951 338.388 328.22 338.388 343.338C338.388 358.455 326.119 370.724 311.001 370.724L311.001 370.724Z" fill="#a718da" fill-rule="nonzero" opacity="1" stroke="none" vectornator:layerName="path"/>
</g>
</g>
</svg>
